HIERARCHY
ROOT Joint1
{
	OFFSET 0.000000 0.000000 0.000000
	CHANNELS 6 Xposition Yposition Zposition Xrotation Yrotation Zrotation
	JOINT Joint2
	{
		OFFSET -0.000000 0.000000 1.456275
		CHANNELS 6 Xposition Yposition Zposition Xrotation Yrotation Zrotation
		JOINT Joint3
		{
			OFFSET -0.000000 0.000002 1.471446
			CHANNELS 6 Xposition Yposition Zposition Xrotation Yrotation Zrotation
			JOINT Joint4
			{
				OFFSET 0.625745 0.000000 0.917755
				CHANNELS 6 Xposition Yposition Zposition Xrotation Yrotation Zrotation
				JOINT Joint5
				{
					OFFSET -0.629534 0.000001 0.940221
					CHANNELS 6 Xposition Yposition Zposition Xrotation Yrotation Zrotation
					JOINT Joint6
					{
						OFFSET -0.000001 0.113772 1.960660
						CHANNELS 6 Xposition Yposition Zposition Xrotation Yrotation Zrotation
						JOINT Joint7
						{
							OFFSET -0.669733 -0.113771 0.388340
							CHANNELS 6 Xposition Yposition Zposition Xrotation Yrotation Zrotation
							End Site
							{
								OFFSET 0.005509 0.005509 0.438980
							}
						}
					}
				}
			}
		}
	}
}
MOTION
Frames: 19
Frame Time: 0.041667
0.000000 0.000000 0.000000 -0.000000 1.019410 0.082250 -0.000000 0.000000 1.456275 -0.000000 -33.162857 -0.000000 -0.000000 0.000002 1.471446 -0.000003 -1.133464 -60.733400 0.625745 0.000001 0.917755 -0.000005 110.366179 -0.000003 -0.629534 0.000001 0.940221 -0.000001 1.709736 -15.883731 -0.000001 0.113772 1.960660 -88.303841 96.493190 0.000021 -0.669733 -0.113771 0.388340 0.310032 2.612175 48.513761 
0.000000 0.000000 0.000000 -0.000000 1.019410 0.084338 -0.000000 0.000000 1.456275 -0.000000 -32.873379 0.000000 -0.000000 0.000002 1.471446 -0.000003 -1.133462 -62.220209 0.625745 0.000000 0.917755 0.000010 109.762322 0.000005 -0.629534 0.000001 0.940220 -0.000003 1.709736 -16.272432 -0.000000 0.113772 1.960661 -88.303855 96.652709 0.000017 -0.669733 -0.113771 0.388340 0.311643 2.574657 46.397629 
0.000000 0.000000 0.000000 -0.000000 1.019410 0.086150 -0.000000 0.000000 1.456275 -0.000000 -32.622141 0.000000 -0.000000 0.000002 1.471446 -0.000003 -1.133469 -63.510582 0.625745 0.000000 0.917755 0.000009 109.238241 -0.000000 -0.629534 0.000001 0.940221 -0.000000 1.709737 -16.609780 -0.000001 0.113772 1.960660 -88.303855 96.791143 0.000013 -0.669733 -0.113771 0.388340 0.311917 2.542067 44.561121 
0.000000 0.000000 0.000000 -0.000000 1.019410 0.087948 -0.000000 -0.000000 1.456275 -0.000000 -32.372672 -0.000000 -0.000000 0.000002 1.471446 -0.000003 -1.133465 -64.791933 0.625745 0.000001 0.917755 0.000006 108.717822 0.000001 -0.629533 0.000001 0.940221 0.000001 1.709736 -16.944767 -0.000001 0.113772 1.960660 -88.303855 96.928615 0.000013 -0.669733 -0.113771 0.388340 0.311153 2.509713 42.737522 
0.000000 0.000000 0.000000 -0.000000 1.019410 0.089998 -0.000000 -0.000000 1.456275 0.000000 -32.088471 -0.000000 -0.000000 0.000002 1.471446 -0.000003 -1.133464 -66.251646 0.625744 0.000001 0.917756 0.000011 108.124968 -0.000003 -0.629534 0.000001 0.940221 -0.000000 1.709737 -17.326382 -0.000001 0.113772 1.960660 -88.303855 97.085217 0.000023 -0.669733 -0.113771 0.388340 0.309028 2.472905 40.660113 
0.000000 0.000000 0.000000 -0.000000 1.019410 0.092467 -0.000000 0.000000 1.456275 0.000000 -31.746074 -0.000000 -0.000000 0.000002 1.471446 -0.000003 -1.133466 -68.010277 0.625744 0.000001 0.917755 0.000007 107.410701 -0.000002 -0.629534 0.000001 0.940220 -0.000003 1.709737 -17.786151 -0.000001 0.113772 1.960660 -88.303855 97.273894 0.000010 -0.669733 -0.113771 0.388340 0.304697 2.428700 38.157367 
0.000000 0.000000 0.000000 -0.000000 1.019410 0.095149 -0.000000 0.000000 1.456275 -0.000000 -31.374078 0.000000 -0.000000 0.000002 1.471445 -0.000004 -1.133464 -69.920940 0.625745 0.000000 0.917755 0.000014 106.634696 -0.000006 -0.629533 0.000001 0.940221 -0.000002 1.709738 -18.285661 -0.000001 0.113772 1.960660 -88.303862 97.478875 0.000015 -0.669733 -0.113771 0.388340 0.297807 2.380937 35.438361 
0.000000 0.000000 0.000000 -0.000000 1.019410 0.097745 -0.000000 0.000000 1.456275 -0.000000 -31.014093 0.000000 -0.000000 0.000002 1.471445 -0.000004 -1.133466 -71.769893 0.625745 0.000000 0.917755 0.000007 105.883751 -0.000000 -0.629534 0.000001 0.940221 0.000000 1.709738 -18.769037 -0.000001 0.113772 1.960660 -88.303855 97.677244 0.000018 -0.669733 -0.113771 0.388339 0.288987 2.335078 32.807250 
0.000000 0.000000 0.000000 -0.000000 1.019410 0.100020 -0.000000 0.000000 1.456275 -0.000000 -30.698565 0.000000 -0.000000 0.000002 1.471446 -0.000004 -1.133462 -73.390485 0.625745 0.000001 0.917755 0.000004 105.225553 -0.000002 -0.629533 0.000001 0.940221 0.000000 1.709734 -19.192710 0.000000 0.113772 1.960661 -88.303855 97.851114 0.000020 -0.669733 -0.113771 0.388340 0.279531 2.295252 30.501159 
0.000000 0.000000 0.000000 -0.000000 1.019410 0.102006 -0.000000 0.000000 1.456275 -0.000000 -30.423264 0.000000 -0.000000 0.000002 1.471446 -0.000004 -1.133463 -74.804491 0.625744 0.000000 0.917755 0.000018 104.651264 -0.000004 -0.629534 0.000001 0.940221 -0.000000 1.709735 -19.562379 -0.000001 0.113772 1.960661 -88.303848 98.002812 0.000014 -0.669733 -0.113771 0.388340 0.269977 2.260838 28.489100 
0.000000 0.000000 0.000000 -0.000000 1.019410 0.103797 -0.000000 0.000000 1.456275 0.000000 -30.174779 -0.000000 -0.000000 0.000002 1.471446 -0.000004 -1.133466 -76.080753 0.625745 0.000000 0.917755 0.000007 104.132914 -0.000005 -0.629534 0.000000 0.940221 0.000000 1.709738 -19.896035 -0.000000 0.113772 1.960660 -88.303868 98.139737 0.000017 -0.669733 -0.113771 0.388340 0.260320 2.230081 26.673074 
0.000000 0.000000 0.000000 -0.000000 1.019410 0.105492 -0.000000 0.000000 1.456275 -0.000000 -29.939707 -0.000000 -0.000000 0.000002 1.471445 -0.000004 -1.133465 -77.288139 0.625745 0.000000 0.917755 0.000007 103.642527 -0.000003 -0.629533 0.000001 0.940221 -0.000000 1.709737 -20.211689 -0.000001 0.113772 1.960661 -88.303868 98.269278 0.000012 -0.669733 -0.113771 0.388339 0.250290 2.201279 24.955076 
0.000000 0.000000 0.000000 -0.000000 1.019410 0.107187 -0.000000 -0.000000 1.456275 -0.000000 -29.704633 0.000000 -0.000000 0.000002 1.471446 -0.000004 -1.133466 -78.495519 0.625745 0.000000 0.917755 0.000009 103.152153 -0.000005 -0.629534 0.000001 0.940221 0.000002 1.709738 -20.527334 -0.000001 0.113772 1.960661 -88.303868 98.398813 0.000011 -0.669733 -0.113771 0.388340 0.239402 2.172791 23.237130 
0.000000 0.000000 0.000000 -0.000000 1.019410 0.108979 -0.000000 0.000000 1.456275 0.000000 -29.456157 -0.000000 -0.000000 0.000002 1.471446 -0.000004 -1.133467 -79.771753 0.625744 0.000000 0.917755 0.000008 102.633803 -0.000003 -0.629534 0.000001 0.940221 0.000000 1.709738 -20.860984 -0.000001 0.113772 1.960660 -88.303875 98.535731 0.000002 -0.669733 -0.113771 0.388340 0.226969 2.143047 21.421220 
0.000000 0.000000 0.000000 -0.000000 1.019410 0.110964 -0.000000 0.000000 1.456275 -0.000000 -29.180856 -0.000000 -0.000001 0.000002 1.471446 -0.000005 -1.133466 -81.185753 0.625745 0.000000 0.917755 0.000012 102.059521 -0.000004 -0.629534 0.000001 0.940220 0.000000 1.709737 -21.230651 -0.000002 0.113772 1.960660 -88.303855 98.687436 0.000007 -0.669733 -0.113771 0.388340 0.212101 2.110571 19.409338 
0.000000 0.000000 0.000000 -0.000000 1.019410 0.113240 -0.000000 0.000000 1.456275 -0.000000 -28.865325 -0.000000 -0.000001 0.000002 1.471445 -0.000005 -1.133466 -82.806386 0.625745 0.000001 0.917755 0.000004 101.401309 -0.000005 -0.629533 0.000001 0.940221 0.000001 1.709737 -21.654343 -0.000001 0.113772 1.960661 -88.303868 98.861306 0.000011 -0.669733 -0.113771 0.388340 0.193669 2.074017 17.103485 
0.000000 0.000000 0.000000 -0.000000 1.019410 0.115836 -0.000000 -0.000000 1.456275 -0.000000 -28.505325 0.000000 -0.000000 0.000002 1.471446 -0.000005 -1.133467 -84.655427 0.625744 0.000001 0.917755 0.000011 100.650323 -0.000004 -0.629534 0.000001 0.940221 -0.000000 1.709736 -22.137741 -0.000001 0.113772 1.960660 -88.303862 99.059682 0.000010 -0.669733 -0.113771 0.388340 0.170864 2.033258 14.472712 
0.000000 0.000000 0.000000 -0.000000 1.019410 0.118518 -0.000000 0.000000 1.456275 -0.000000 -28.133317 0.000000 -0.000000 0.000002 1.471445 -0.000005 -1.133465 -86.566125 0.625745 0.000000 0.917755 0.000009 99.874298 -0.000006 -0.629533 0.000001 0.940221 -0.000000 1.709736 -22.637258 -0.000001 0.113772 1.960660 -88.303855 99.264669 0.000013 -0.669733 -0.113771 0.388340 0.145357 1.992281 11.754255 
0.000000 0.000000 0.000000 -0.000000 1.019410 0.120987 -0.000000 -0.000000 1.456275 -0.000000 -27.790943 -0.000000 -0.000000 0.000002 1.471445 -0.000005 -1.133464 -88.324639 0.625745 0.000001 0.917755 0.000014 99.160092 -0.000006 -0.629533 0.000001 0.940221 -0.000000 1.709735 -23.096993 -0.000001 0.113772 1.960660 -88.303862 99.453333 0.000027 -0.669733 -0.113771 0.388340 0.120188 1.955678 9.252366 
